<svg width="433.001" height="45.002" viewBox="0 0 433.001 45.002" xmlns="http://www.w3.org/2000/svg"><g id="svgGroup" stroke-linecap="round" fill-rule="nonzero" font-size="9pt" stroke="#0052ff" stroke-width="0" fill="#0052ff" style="stroke:#0052ff;stroke-width:0;fill:#0052ff"><path d="M 15.9 45.001 Q 18.8 45.001 21.85 44.051 A 15.928 15.928 0 0 0 23.722 43.335 A 17.883 17.883 0 0 0 27.6 40.901 Q 27.975 40.526 28.24 40.14 A 3.814 3.814 0 0 0 28.7 39.251 Q 29 38.401 29 37.701 Q 29 36.001 27.85 34.701 Q 26.7 33.401 25.1 33.401 A 2.828 2.828 0 0 0 24.553 33.455 Q 23.705 33.622 22.8 34.301 Q 19.7 36.901 16.2 36.901 Q 13.1 36.901 10.8 34.851 A 6.597 6.597 0 0 1 8.784 31.498 A 9.542 9.542 0 0 1 8.5 29.101 A 8.817 8.817 0 0 1 8.562 28.039 A 6.273 6.273 0 0 1 10.6 24.001 A 7.073 7.073 0 0 1 13.528 22.411 A 9.366 9.366 0 0 1 16 22.101 A 11.639 11.639 0 0 1 17.177 22.158 A 9.071 9.071 0 0 1 18.55 22.401 A 8.21 8.21 0 0 1 19.12 22.573 Q 19.596 22.735 20.124 22.971 A 17.379 17.379 0 0 1 21.2 23.501 Q 22.1 24.101 23.2 24.101 A 3.719 3.719 0 0 0 24.768 23.773 A 3.854 3.854 0 0 0 26.05 22.801 A 5.447 5.447 0 0 0 26.256 22.554 A 4.2 4.2 0 0 0 27.2 19.901 A 4.772 4.772 0 0 0 27.2 19.885 Q 27.194 17.996 25.7 16.801 A 10.046 10.046 0 0 0 24.444 15.899 A 10.933 10.933 0 0 0 21.2 14.601 Q 18.6 14.001 15.9 14.001 A 21.021 21.021 0 0 0 12.365 14.287 A 15.076 15.076 0 0 0 4.5 18.051 A 13.333 13.333 0 0 0 0.707 24.136 A 17.743 17.743 0 0 0 0 29.001 A 19.783 19.783 0 0 0 0.266 32.308 A 14.778 14.778 0 0 0 2.2 37.601 Q 4.4 41.201 8.05 43.101 Q 11.7 45.001 15.9 45.001 Z" id="0" vector-effect="non-scaling-stroke"/><path d="M 48.3 45.001 Q 44 45.001 40.4 43.001 Q 36.8 41.001 34.65 37.451 A 14.952 14.952 0 0 1 32.534 30.511 A 18.13 18.13 0 0 1 32.5 29.401 A 16.622 16.622 0 0 1 33.055 25.026 A 13.704 13.704 0 0 1 34.65 21.351 Q 36.8 17.901 40.4 15.951 Q 44 14.001 48.3 14.001 A 17.106 17.106 0 0 1 53.468 14.763 A 15.335 15.335 0 0 1 56.25 15.951 Q 59.8 17.901 61.9 21.351 A 14.361 14.361 0 0 1 63.852 27.038 A 18.333 18.333 0 0 1 64 29.401 A 16.495 16.495 0 0 1 63.26 34.41 A 14.634 14.634 0 0 1 61.9 37.451 Q 59.8 41.001 56.25 43.001 A 15.671 15.671 0 0 1 49.252 44.977 A 18.773 18.773 0 0 1 48.3 45.001 Z M 48.3 36.901 A 7.27 7.27 0 0 0 50.793 36.489 A 6.328 6.328 0 0 0 53.35 34.751 A 7.468 7.468 0 0 0 55.266 30.232 A 9.859 9.859 0 0 0 55.3 29.401 A 9.056 9.056 0 0 0 55.014 27.065 A 6.601 6.601 0 0 0 53.35 24.101 A 6.54 6.54 0 0 0 49.149 22.14 A 8.91 8.91 0 0 0 48.3 22.101 A 7.422 7.422 0 0 0 45.498 22.617 A 6.897 6.897 0 0 0 43.25 24.101 A 6.684 6.684 0 0 0 41.298 28.019 A 9.389 9.389 0 0 0 41.2 29.401 Q 41.2 32.601 43.25 34.751 A 6.682 6.682 0 0 0 48.108 36.899 A 8.247 8.247 0 0 0 48.3 36.901 Z" id="1" vector-effect="non-scaling-stroke"/><path d="M 70.1 41.101 L 70.1 18.401 A 3.578 3.578 0 0 1 71.226 15.769 A 4.769 4.769 0 0 1 71.35 15.651 A 4.281 4.281 0 0 1 73.562 14.587 A 6.01 6.01 0 0 1 74.6 14.501 A 5.604 5.604 0 0 1 75.921 14.648 A 3.79 3.79 0 0 1 77.75 15.651 A 3.861 3.861 0 0 1 78.9 18.448 A 4.988 4.988 0 0 1 78.9 18.501 L 78.9 41.001 A 3.703 3.703 0 0 1 77.765 43.741 A 4.51 4.51 0 0 1 77.65 43.851 A 4.319 4.319 0 0 1 74.712 45 A 5.557 5.557 0 0 1 74.6 45.001 A 5.437 5.437 0 0 1 73.001 44.775 A 4.488 4.488 0 0 1 71.4 43.901 A 3.632 3.632 0 0 1 70.405 42.607 A 3.651 3.651 0 0 1 70.1 41.101 Z M 74.6 9.501 Q 76.6 9.501 78.05 8.151 A 4.413 4.413 0 0 0 79.202 6.45 A 4.965 4.965 0 0 0 79.5 4.701 A 4.347 4.347 0 0 0 79.088 2.817 A 4.863 4.863 0 0 0 78.05 1.401 Q 76.6 0.001 74.6 0.001 Q 72.5 0.001 71 1.401 A 5.811 5.811 0 0 0 70.775 1.623 A 4.308 4.308 0 0 0 69.5 4.701 A 5.69 5.69 0 0 0 69.506 4.96 A 4.396 4.396 0 0 0 71 8.151 Q 72.5 9.501 74.6 9.501 Z" id="2" vector-effect="non-scaling-stroke"/><path d="M 107.7 41.101 L 107.7 28.901 A 13.105 13.105 0 0 0 107.577 27.034 Q 107.249 24.763 106.05 23.601 Q 104.4 22.001 102 22.001 A 6.41 6.41 0 0 0 99.909 22.329 A 5.482 5.482 0 0 0 97.85 23.601 A 7.274 7.274 0 0 0 96.36 25.618 A 6.605 6.605 0 0 0 95.8 27.301 L 95.8 40.701 A 3.703 3.703 0 0 1 94.665 43.441 A 4.51 4.51 0 0 1 94.55 43.551 A 4.319 4.319 0 0 1 91.612 44.7 A 5.557 5.557 0 0 1 91.5 44.701 A 5.437 5.437 0 0 1 89.901 44.475 A 4.488 4.488 0 0 1 88.3 43.601 A 3.632 3.632 0 0 1 87.305 42.307 A 3.651 3.651 0 0 1 87 40.801 L 87 18.401 A 3.578 3.578 0 0 1 88.126 15.769 A 4.769 4.769 0 0 1 88.25 15.651 A 4.254 4.254 0 0 1 88.27 15.633 Q 89.516 14.501 91.5 14.501 A 5.003 5.003 0 0 1 92.804 14.664 A 3.928 3.928 0 0 1 94.2 15.351 Q 95.3 16.201 95.7 17.501 A 8.654 8.654 0 0 1 100.736 14.343 A 13.744 13.744 0 0 1 103.9 14.001 A 15.532 15.532 0 0 1 107.955 14.504 A 11.657 11.657 0 0 1 113 17.301 Q 115.736 19.88 116.333 24.841 A 24.788 24.788 0 0 1 116.5 27.801 L 116.5 41.301 A 3.285 3.285 0 0 1 115.456 43.766 A 4.154 4.154 0 0 1 115.25 43.951 A 4.424 4.424 0 0 1 113.064 44.927 A 6.041 6.041 0 0 1 112.1 45.001 A 5.401 5.401 0 0 1 110.613 44.805 A 4.25 4.25 0 0 1 108.95 43.901 Q 107.7 42.801 107.7 41.101 Z" id="3" vector-effect="non-scaling-stroke"/><path d="M 124 41.101 L 124 3.901 A 3.578 3.578 0 0 1 125.126 1.269 A 4.769 4.769 0 0 1 125.25 1.151 A 4.281 4.281 0 0 1 127.462 0.087 A 6.01 6.01 0 0 1 128.5 0.001 A 5.124 5.124 0 0 1 129.928 0.191 A 3.976 3.976 0 0 1 131.6 1.151 A 3.775 3.775 0 0 1 132.799 3.895 A 4.744 4.744 0 0 1 132.8 4.001 L 132.8 17.101 A 12.085 12.085 0 0 1 136.395 14.788 A 10.805 10.805 0 0 1 140.5 14.001 A 17.002 17.002 0 0 1 145.165 14.609 A 12.816 12.816 0 0 1 151.05 18.151 A 13.865 13.865 0 0 1 154.49 24.679 A 20.623 20.623 0 0 1 155 29.401 A 20.417 20.417 0 0 1 154.449 34.278 A 14.2 14.2 0 0 1 151 40.751 A 13.251 13.251 0 0 1 143.234 44.767 A 18.948 18.948 0 0 1 140.2 45.001 A 11.973 11.973 0 0 1 136.169 44.344 A 10.546 10.546 0 0 1 132.6 42.201 Q 131.882 44.436 129.698 44.887 A 5.924 5.924 0 0 1 128.5 45.001 A 5.437 5.437 0 0 1 126.901 44.775 A 4.488 4.488 0 0 1 125.3 43.901 A 3.632 3.632 0 0 1 124.305 42.607 A 3.651 3.651 0 0 1 124 41.101 Z M 139.5 36.901 A 7.217 7.217 0 0 0 141.792 36.553 A 5.928 5.928 0 0 0 144.45 34.751 A 7.585 7.585 0 0 0 146.23 30.611 A 10.098 10.098 0 0 0 146.3 29.401 A 9.558 9.558 0 0 0 146.04 27.109 A 6.713 6.713 0 0 0 144.45 24.101 A 6.127 6.127 0 0 0 140.619 22.171 A 8.618 8.618 0 0 0 139.5 22.101 A 7.3 7.3 0 0 0 137.213 22.444 A 5.986 5.986 0 0 0 134.65 24.101 A 6.781 6.781 0 0 0 132.999 27.375 A 9.793 9.793 0 0 0 132.8 29.401 A 9.141 9.141 0 0 0 133.154 32 A 7.37 7.37 0 0 0 134.65 34.751 A 6.011 6.011 0 0 0 139.038 36.888 A 8.012 8.012 0 0 0 139.5 36.901 Z" id="4" vector-effect="non-scaling-stroke"/><path d="M 191.5 18.401 L 191.5 41.101 A 3.768 3.768 0 0 1 191.197 42.629 A 3.625 3.625 0 0 1 190.25 43.901 A 4.319 4.319 0 0 1 188.191 44.891 A 6.142 6.142 0 0 1 187 45.001 A 5.641 5.641 0 0 1 185.444 44.802 Q 183.491 44.242 182.9 42.101 Q 179.7 45.001 175 45.001 Q 168.3 45.001 164.15 40.751 A 14.253 14.253 0 0 1 160.366 33.365 A 20.497 20.497 0 0 1 160 29.401 A 20.136 20.136 0 0 1 160.523 24.679 A 13.758 13.758 0 0 1 164.05 18.151 A 13.566 13.566 0 0 1 172.267 14.153 A 18.873 18.873 0 0 1 174.7 14.001 Q 179.4 14.001 182.9 17.301 A 3.958 3.958 0 0 1 184.232 15.429 A 4.893 4.893 0 0 1 184.4 15.301 A 4.183 4.183 0 0 1 186.541 14.52 A 5.297 5.297 0 0 1 187 14.501 A 5.677 5.677 0 0 1 188.448 14.676 A 4.193 4.193 0 0 1 190.25 15.651 A 3.992 3.992 0 0 1 191.121 16.775 A 3.531 3.531 0 0 1 191.5 18.401 Z M 175.7 36.901 A 7.697 7.697 0 0 0 178.002 36.573 A 6.095 6.095 0 0 0 180.8 34.751 A 7.526 7.526 0 0 0 182.649 30.423 A 9.974 9.974 0 0 0 182.7 29.401 A 9.318 9.318 0 0 0 182.433 27.109 A 6.658 6.658 0 0 0 180.8 24.101 A 6.311 6.311 0 0 0 177.083 22.204 A 8.973 8.973 0 0 0 175.7 22.101 Q 172.6 22.101 170.65 24.101 A 6.732 6.732 0 0 0 168.846 27.693 A 9.577 9.577 0 0 0 168.7 29.401 A 8.656 8.656 0 0 0 169.101 32.085 A 7.263 7.263 0 0 0 170.65 34.751 A 6.43 6.43 0 0 0 175.317 36.892 A 8.639 8.639 0 0 0 175.7 36.901 Z" id="5" vector-effect="non-scaling-stroke"/><path d="M 204.638 44.607 Q 201.901 44.12 199.68 43.03 A 15.347 15.347 0 0 1 198.2 42.201 A 4.07 4.07 0 0 1 197.446 41.561 A 3.254 3.254 0 0 1 196.9 40.751 Q 196.5 39.901 196.5 39.101 A 4.735 4.735 0 0 1 197.545 36.133 A 5.969 5.969 0 0 1 197.65 36.001 A 4.027 4.027 0 0 1 198.697 35.081 A 3.458 3.458 0 0 1 200.5 34.601 A 3.405 3.405 0 0 1 201.725 34.835 A 4.181 4.181 0 0 1 202.1 35.001 A 20.882 20.882 0 0 0 204.218 35.801 A 27.495 27.495 0 0 0 206.2 36.351 A 21.685 21.685 0 0 0 208.268 36.746 Q 209.391 36.901 210.4 36.901 A 12.16 12.16 0 0 0 211.61 36.846 Q 214.1 36.595 214.1 35.201 Q 214.1 34.201 213.2 33.451 Q 212.366 32.755 209.467 32.447 A 30.514 30.514 0 0 0 209 32.401 Q 207.707 32.301 205.672 32.004 A 106.465 106.465 0 0 1 205.65 32.001 Q 203.6 31.701 201.6 30.851 Q 199.6 30.001 198.25 28.301 Q 196.9 26.601 196.9 23.701 Q 196.9 19.201 200.3 16.601 Q 203.7 14.001 209.4 14.001 A 27.874 27.874 0 0 1 214.153 14.395 A 24.71 24.71 0 0 1 215.65 14.701 Q 217.671 15.18 219.011 15.988 A 6.525 6.525 0 0 1 220.1 16.801 A 4.743 4.743 0 0 1 220.994 17.9 A 3.738 3.738 0 0 1 221.5 19.801 A 3.829 3.829 0 0 1 220.597 22.273 A 5.004 5.004 0 0 1 220.4 22.501 A 3.604 3.604 0 0 1 217.771 23.698 A 4.691 4.691 0 0 1 217.6 23.701 Q 216.7 23.701 215.9 23.301 A 7.114 7.114 0 0 0 214.632 22.639 Q 214.008 22.385 213.271 22.199 A 12.891 12.891 0 0 0 212.85 22.101 Q 211 21.701 209.1 21.701 A 13.619 13.619 0 0 0 207.857 21.753 Q 205.3 21.988 205.3 23.301 A 1.303 1.303 0 0 0 205.579 24.098 Q 205.718 24.284 205.927 24.456 A 2.855 2.855 0 0 0 206.05 24.551 Q 206.706 25.031 208.85 25.398 A 29.968 29.968 0 0 0 209.5 25.501 A 78.268 78.268 0 0 1 211.083 25.705 Q 212.163 25.854 213.4 26.051 Q 215.6 26.401 217.65 27.251 A 8.04 8.04 0 0 1 220.967 29.825 A 9.588 9.588 0 0 1 221.1 30.001 A 6.589 6.589 0 0 1 222.105 32.09 Q 222.37 33.002 222.458 34.093 A 13.926 13.926 0 0 1 222.5 35.201 A 9.039 9.039 0 0 1 221.811 38.784 Q 220.981 40.73 219.149 42.162 A 10.798 10.798 0 0 1 218.9 42.351 A 12.844 12.844 0 0 1 214.501 44.399 Q 212.713 44.869 210.605 44.972 A 24.725 24.725 0 0 1 209.4 45.001 A 27.197 27.197 0 0 1 204.638 44.607 Z" id="6" vector-effect="non-scaling-stroke"/><path d="M 251.9 31.501 L 235.3 31.501 Q 234.579 31.501 234.508 32.315 A 2.155 2.155 0 0 0 234.5 32.501 A 3.63 3.63 0 0 0 235.846 35.342 A 6.374 6.374 0 0 0 237.05 36.151 A 11.688 11.688 0 0 0 241.527 37.445 A 14.297 14.297 0 0 0 242.8 37.501 Q 244.8 37.501 246.8 36.951 A 11.32 11.32 0 0 0 249.105 36.049 A 9.675 9.675 0 0 0 250.3 35.301 A 3.973 3.973 0 0 1 251.35 34.768 A 3.376 3.376 0 0 1 252.4 34.601 A 3.383 3.383 0 0 1 254.883 35.632 A 4.199 4.199 0 0 1 254.95 35.701 Q 256 36.801 256 38.301 A 3.599 3.599 0 0 1 255.432 40.21 Q 255.101 40.748 254.577 41.267 A 8.051 8.051 0 0 1 254.1 41.701 A 9.066 9.066 0 0 1 252.518 42.741 Q 251.68 43.183 250.643 43.553 A 21.471 21.471 0 0 1 248.85 44.101 A 27.363 27.363 0 0 1 243.551 44.958 A 24.6 24.6 0 0 1 242.1 45.001 A 18.875 18.875 0 0 1 236.243 44.126 A 15.917 15.917 0 0 1 230.65 40.951 A 13.275 13.275 0 0 1 226.192 32.559 A 19.121 19.121 0 0 1 226 29.801 A 19.348 19.348 0 0 1 226.588 24.895 A 13.578 13.578 0 0 1 230.55 18.201 A 15.705 15.705 0 0 1 239.901 14.103 A 20.994 20.994 0 0 1 242 14.001 Q 246.9 14.001 250.1 15.801 Q 253.3 17.601 254.9 20.401 Q 256.5 23.201 256.5 26.301 A 8.558 8.558 0 0 1 256.295 28.263 Q 255.669 30.91 253.129 31.393 A 6.587 6.587 0 0 1 251.9 31.501 Z M 235.4 25.701 L 247.3 25.701 Q 247.5 25.701 247.85 25.601 A 0.419 0.419 0 0 0 248.125 25.351 Q 248.2 25.18 248.2 24.901 A 2.554 2.554 0 0 0 247.708 23.42 Q 247.434 23.026 247.007 22.652 A 6.667 6.667 0 0 0 246.35 22.151 A 6.925 6.925 0 0 0 244.088 21.176 Q 242.96 20.901 241.6 20.901 Q 239.052 20.901 237.281 21.813 A 6.552 6.552 0 0 0 236.55 22.251 A 7.582 7.582 0 0 0 235.697 22.929 Q 234.776 23.787 234.628 24.665 A 2.022 2.022 0 0 0 234.6 25.001 Q 234.6 25.701 235.4 25.701 Z" id="7" vector-effect="non-scaling-stroke"/><path d="M 296.4 45.001 Q 299.3 45.001 302.35 44.051 A 15.928 15.928 0 0 0 304.222 43.335 A 17.883 17.883 0 0 0 308.1 40.901 Q 308.475 40.526 308.74 40.14 A 3.814 3.814 0 0 0 309.2 39.251 Q 309.5 38.401 309.5 37.701 Q 309.5 36.001 308.35 34.701 Q 307.2 33.401 305.6 33.401 A 2.828 2.828 0 0 0 305.053 33.455 Q 304.205 33.622 303.3 34.301 Q 300.2 36.901 296.7 36.901 Q 293.6 36.901 291.3 34.851 A 6.597 6.597 0 0 1 289.284 31.498 A 9.542 9.542 0 0 1 289 29.101 A 8.817 8.817 0 0 1 289.062 28.039 A 6.273 6.273 0 0 1 291.1 24.001 A 7.073 7.073 0 0 1 294.028 22.411 A 9.366 9.366 0 0 1 296.5 22.101 A 11.639 11.639 0 0 1 297.677 22.158 A 9.071 9.071 0 0 1 299.05 22.401 A 8.21 8.21 0 0 1 299.62 22.573 Q 300.096 22.735 300.624 22.971 A 17.379 17.379 0 0 1 301.7 23.501 Q 302.6 24.101 303.7 24.101 A 3.719 3.719 0 0 0 305.268 23.773 A 3.854 3.854 0 0 0 306.55 22.801 A 5.447 5.447 0 0 0 306.756 22.554 A 4.2 4.2 0 0 0 307.7 19.901 A 4.772 4.772 0 0 0 307.7 19.885 Q 307.694 17.996 306.2 16.801 A 10.046 10.046 0 0 0 304.944 15.899 A 10.933 10.933 0 0 0 301.7 14.601 Q 299.1 14.001 296.4 14.001 A 21.021 21.021 0 0 0 292.865 14.287 A 15.076 15.076 0 0 0 285 18.051 A 13.333 13.333 0 0 0 281.207 24.136 A 17.743 17.743 0 0 0 280.5 29.001 A 19.783 19.783 0 0 0 280.766 32.308 A 14.778 14.778 0 0 0 282.7 37.601 Q 284.9 41.201 288.55 43.101 Q 292.2 45.001 296.4 45.001 Z" id="9" vector-effect="non-scaling-stroke"/><path d="M 315.1 41.101 L 315.1 3.901 A 3.578 3.578 0 0 1 316.226 1.269 A 4.769 4.769 0 0 1 316.35 1.151 A 4.281 4.281 0 0 1 318.562 0.087 A 6.01 6.01 0 0 1 319.6 0.001 A 5.124 5.124 0 0 1 321.028 0.191 A 3.976 3.976 0 0 1 322.7 1.151 A 3.775 3.775 0 0 1 323.899 3.895 A 4.744 4.744 0 0 1 323.9 4.001 L 323.9 41.001 A 3.703 3.703 0 0 1 322.765 43.741 A 4.51 4.51 0 0 1 322.65 43.851 A 4.319 4.319 0 0 1 319.712 45 A 5.557 5.557 0 0 1 319.6 45.001 A 5.437 5.437 0 0 1 318.001 44.775 A 4.488 4.488 0 0 1 316.4 43.901 A 3.632 3.632 0 0 1 315.405 42.607 A 3.651 3.651 0 0 1 315.1 41.101 Z" id="10" vector-effect="non-scaling-stroke"/><path d="M 345.8 45.001 Q 341.5 45.001 337.9 43.001 Q 334.3 41.001 332.15 37.451 A 14.952 14.952 0 0 1 330.034 30.511 A 18.13 18.13 0 0 1 330 29.401 A 16.622 16.622 0 0 1 330.555 25.026 A 13.704 13.704 0 0 1 332.15 21.351 Q 334.3 17.901 337.9 15.951 Q 341.5 14.001 345.8 14.001 A 17.106 17.106 0 0 1 350.968 14.763 A 15.335 15.335 0 0 1 353.75 15.951 Q 357.3 17.901 359.4 21.351 A 14.361 14.361 0 0 1 361.352 27.038 A 18.333 18.333 0 0 1 361.5 29.401 A 16.495 16.495 0 0 1 360.76 34.41 A 14.634 14.634 0 0 1 359.4 37.451 Q 357.3 41.001 353.75 43.001 A 15.671 15.671 0 0 1 346.752 44.977 A 18.773 18.773 0 0 1 345.8 45.001 Z M 345.8 36.901 A 7.27 7.27 0 0 0 348.293 36.489 A 6.328 6.328 0 0 0 350.85 34.751 A 7.468 7.468 0 0 0 352.766 30.232 A 9.859 9.859 0 0 0 352.8 29.401 A 9.056 9.056 0 0 0 352.514 27.065 A 6.601 6.601 0 0 0 350.85 24.101 A 6.54 6.54 0 0 0 346.649 22.14 A 8.91 8.91 0 0 0 345.8 22.101 A 7.422 7.422 0 0 0 342.998 22.617 A 6.897 6.897 0 0 0 340.75 24.101 A 6.684 6.684 0 0 0 338.798 28.019 A 9.389 9.389 0 0 0 338.7 29.401 Q 338.7 32.601 340.75 34.751 A 6.682 6.682 0 0 0 345.608 36.899 A 8.247 8.247 0 0 0 345.8 36.901 Z" id="11" vector-effect="non-scaling-stroke"/><path d="M 388.2 41.101 L 388.2 28.901 A 13.105 13.105 0 0 0 388.077 27.034 Q 387.749 24.763 386.55 23.601 Q 384.9 22.001 382.5 22.001 A 6.41 6.41 0 0 0 380.409 22.329 A 5.482 5.482 0 0 0 378.35 23.601 A 7.274 7.274 0 0 0 376.86 25.618 A 6.605 6.605 0 0 0 376.3 27.301 L 376.3 40.701 A 3.703 3.703 0 0 1 375.165 43.441 A 4.51 4.51 0 0 1 375.05 43.551 A 4.319 4.319 0 0 1 372.112 44.7 A 5.557 5.557 0 0 1 372 44.701 A 5.437 5.437 0 0 1 370.401 44.475 A 4.488 4.488 0 0 1 368.8 43.601 A 3.632 3.632 0 0 1 367.805 42.307 A 3.651 3.651 0 0 1 367.5 40.801 L 367.5 18.401 A 3.578 3.578 0 0 1 368.626 15.769 A 4.769 4.769 0 0 1 368.75 15.651 A 4.254 4.254 0 0 1 368.77 15.633 Q 370.016 14.501 372 14.501 A 5.003 5.003 0 0 1 373.304 14.664 A 3.928 3.928 0 0 1 374.7 15.351 Q 375.8 16.201 376.2 17.501 A 8.654 8.654 0 0 1 381.236 14.343 A 13.744 13.744 0 0 1 384.4 14.001 A 15.532 15.532 0 0 1 388.455 14.504 A 11.657 11.657 0 0 1 393.5 17.301 Q 396.236 19.88 396.833 24.841 A 24.788 24.788 0 0 1 397 27.801 L 397 41.301 A 3.285 3.285 0 0 1 395.956 43.766 A 4.154 4.154 0 0 1 395.75 43.951 A 4.424 4.424 0 0 1 393.564 44.927 A 6.041 6.041 0 0 1 392.6 45.001 A 5.401 5.401 0 0 1 391.113 44.805 A 4.25 4.25 0 0 1 389.45 43.901 Q 388.2 42.801 388.2 41.101 Z" id="12" vector-effect="non-scaling-stroke"/><path d="M 428.4 31.501 L 411.8 31.501 Q 411.079 31.501 411.008 32.315 A 2.155 2.155 0 0 0 411 32.501 A 3.63 3.63 0 0 0 412.346 35.342 A 6.374 6.374 0 0 0 413.55 36.151 A 11.688 11.688 0 0 0 418.027 37.445 A 14.297 14.297 0 0 0 419.3 37.501 Q 421.3 37.501 423.3 36.951 A 11.32 11.32 0 0 0 425.605 36.049 A 9.675 9.675 0 0 0 426.8 35.301 A 3.973 3.973 0 0 1 427.85 34.768 A 3.376 3.376 0 0 1 428.9 34.601 A 3.383 3.383 0 0 1 431.383 35.632 A 4.199 4.199 0 0 1 431.45 35.701 Q 432.5 36.801 432.5 38.301 A 3.599 3.599 0 0 1 431.932 40.21 Q 431.601 40.748 431.077 41.267 A 8.051 8.051 0 0 1 430.6 41.701 A 9.066 9.066 0 0 1 429.018 42.741 Q 428.18 43.183 427.143 43.553 A 21.471 21.471 0 0 1 425.35 44.101 A 27.363 27.363 0 0 1 420.051 44.958 A 24.6 24.6 0 0 1 418.6 45.001 A 18.875 18.875 0 0 1 412.743 44.126 A 15.917 15.917 0 0 1 407.15 40.951 A 13.275 13.275 0 0 1 402.692 32.559 A 19.121 19.121 0 0 1 402.5 29.801 A 19.348 19.348 0 0 1 403.088 24.895 A 13.578 13.578 0 0 1 407.05 18.201 A 15.705 15.705 0 0 1 416.401 14.103 A 20.994 20.994 0 0 1 418.5 14.001 Q 423.4 14.001 426.6 15.801 Q 429.8 17.601 431.4 20.401 Q 433 23.201 433 26.301 A 8.558 8.558 0 0 1 432.795 28.263 Q 432.169 30.91 429.629 31.393 A 6.587 6.587 0 0 1 428.4 31.501 Z M 411.9 25.701 L 423.8 25.701 Q 424 25.701 424.35 25.601 A 0.419 0.419 0 0 0 424.625 25.351 Q 424.7 25.18 424.7 24.901 A 2.554 2.554 0 0 0 424.208 23.42 Q 423.934 23.026 423.507 22.652 A 6.667 6.667 0 0 0 422.85 22.151 A 6.925 6.925 0 0 0 420.588 21.176 Q 419.46 20.901 418.1 20.901 Q 415.552 20.901 413.781 21.813 A 6.552 6.552 0 0 0 413.05 22.251 A 7.582 7.582 0 0 0 412.197 22.929 Q 411.276 23.787 411.128 24.665 A 2.022 2.022 0 0 0 411.1 25.001 Q 411.1 25.701 411.9 25.701 Z" id="13" vector-effect="non-scaling-stroke"/></g></svg>